Coordinates
version=1
nRows=17
nColumns=33
inDegrees=yes

Units are S.I. units (second, meters, Newtons, ...)
Angles are in degrees.

endheader
time	ground_thorax_rot_x	ground_thorax_rot_y	ground_thorax_rot_z	ground_thorax_tx	ground_thorax_ty	ground_thorax_tz	clav_prot_r	clav_elev_r	scapula_abduction_r	scapula_elevation_r	scapula_upward_rot_r	scapula_winging_r	shoulder_elv_r	plane_of_elev_r	axial_rot_r	elbow_flexion_r	pro_sup_r	wrist_flex_r	wrist_dev_r	clav_prot_l	clav_elev_l	scapula_abduction_l	scapula_elevation_l	scapula_upward_rot_l	scapula_winging_l	shoulder_elv_l	plane_of_elev_l	axial_rot_l	elbow_flexion_l	pro_sup_l	wrist_flex_l	wrist_dev_l	
4.7600	-5.293685	4.988650	13.616587	-0.121055	1.023708	0.005303	12.115142	-16.970459	23.002644	-10.847504	4.175080	-2.546467	-12.562920	-61.595492	114.460228	-40.662771	-159.424145	17.272022	-2.957350	19.195566	-8.618536	-28.011980	-10.782626	-30.062162	6.987333	60.213004	-8.618400	15.973628	20.965962	9.124353	11.996211	-15.694960	
4.7700	-5.309712	4.997870	13.667093	-0.121270	1.023610	0.005318	11.856537	-17.014628	22.258530	-10.661622	3.554239	-2.229465	-12.994107	-61.932122	114.323149	-40.697721	-158.879028	17.257414	-2.628089	19.109178	-8.459527	-27.894807	-11.078213	-30.378035	6.908633	60.090431	-9.135167	15.820398	21.171071	10.320538	12.090577	-16.112223	
4.7800	-5.309188	4.986775	13.736214	-0.121467	1.023507	0.005353	11.619846	-17.018514	21.561306	-10.440454	2.945823	-1.956714	-13.452738	-62.259973	114.178926	-40.731113	-158.473078	17.273314	-2.388288	19.012971	-8.298223	-27.763978	-11.387778	-30.717567	6.818545	59.928965	-9.673460	15.695024	21.413465	11.330264	12.211091	-16.523337	
4.7900	-5.288258	4.964546	13.782748	-0.121658	1.023447	0.005408	11.413474	-16.999355	20.931842	-10.204895	2.364273	-1.726413	-13.920861	-62.567909	113.995492	-40.747384	-158.250001	17.336709	-2.253351	18.904117	-8.149845	-27.613085	-11.691583	-31.067123	6.713136	59.760957	-10.216632	15.564893	21.675615	12.117580	12.348758	-16.922856	
4.8000	-5.258733	4.943786	13.833655	-0.121804	1.023433	0.005478	11.199513	-16.973662	20.293869	-9.962273	1.784112	-1.495859	-14.405189	-62.873459	113.758975	-40.766269	-158.112385	17.439645	-2.158692	18.773568	-8.007204	-27.427697	-12.000186	-31.434390	6.584540	59.593090	-10.776797	15.414138	21.986351	12.836661	12.485521	-17.342059	
4.8100	-5.221333	4.927730	13.857404	-0.121926	1.023488	0.005560	10.986326	-16.952203	19.669073	-9.728884	1.222448	-1.267199	-14.894142	-63.173153	113.469711	-40.787614	-158.064546	17.579546	-2.111819	18.628278	-7.869634	-27.218035	-12.303220	-31.796938	6.440897	59.432038	-11.337546	15.247491	22.325564	13.482297	12.624499	-17.774833	
4.8200	-5.178442	4.909019	13.876723	-0.122007	1.023555	0.005648	10.765541	-16.920528	19.042983	-9.491107	0.677488	-1.042271	-15.406540	-63.485284	113.154744	-40.847239	-158.067483	17.747262	-2.105695	18.470250	-7.711764	-26.989319	-12.623536	-32.155423	6.287501	59.244673	-11.908489	15.098875	22.735148	14.085540	12.773050	-18.232992	
4.8300	-5.139793	4.891201	13.895073	-0.122046	1.023653	0.005745	10.529494	-16.899663	18.399094	-9.266517	0.143029	-0.802639	-15.976199	-63.818969	112.778412	-40.950468	-158.151869	17.963901	-2.159443	18.297018	-7.533453	-26.735490	-12.954582	-32.495153	6.122827	59.041677	-12.510208	14.948072	23.215056	14.682096	12.948583	-18.749427	
4.8400	-5.095515	4.861793	13.927177	-0.122034	1.023731	0.005854	10.285129	-16.845313	17.758200	-9.020150	-0.364552	-0.582324	-16.602046	-64.163818	112.383534	-41.104222	-158.316210	18.224880	-2.276065	18.107317	-7.326482	-26.455889	-13.311224	-32.831653	5.945095	58.798076	-13.142597	14.836337	23.794003	15.186544	13.127846	-19.286882	
4.8500	-5.047755	4.824930	13.961941	-0.122005	1.023817	0.005975	10.040496	-16.766552	17.133697	-8.761345	-0.842761	-0.381419	-17.273579	-64.512936	111.971358	-41.294572	-158.546569	18.532935	-2.451029	17.907696	-7.100945	-26.159974	-13.680805	-33.157835	5.759200	58.529580	-13.799721	14.744844	24.441707	15.605226	13.305477	-19.833938	
4.8600	-4.986176	4.775478	13.999344	-0.121967	1.023882	0.006106	9.807886	-16.638711	16.549800	-8.469388	-1.284494	-0.223419	-17.967341	-64.859618	111.576222	-41.523757	-158.811196	18.887246	-2.677577	17.700220	-6.856013	-25.852886	-14.071338	-33.489116	5.565703	58.228497	-14.469978	14.678257	25.173505	15.884265	13.458420	-20.356421	
4.8700	-4.917898	4.723535	14.036113	-0.121933	1.023979	0.006241	9.583136	-16.502799	15.990286	-8.177110	-1.704757	-0.078223	-18.701919	-65.219156	111.152531	-41.778477	-159.105578	19.318621	-2.968436	17.483752	-6.603447	-25.530138	-14.465905	-33.811625	5.363278	57.917343	-15.165521	14.585533	25.969594	16.088313	13.600916	-20.886384	
4.8800	-4.834687	4.664083	14.066601	-0.121901	1.024092	0.006374	9.374250	-16.339446	15.475657	-7.872274	-2.088666	0.034980	-19.468654	-65.582524	110.718021	-42.052805	-159.410240	19.837057	-3.330152	17.256351	-6.343156	-25.187995	-14.865991	-34.127846	5.149835	57.588425	-15.878580	14.482709	26.835720	16.161095	13.711782	-21.392744	
4.8900	-4.740842	4.601320	14.073246	-0.121882	1.024248	0.006510	9.184827	-16.161589	15.013907	-7.569735	-2.429636	0.120540	-20.268617	-65.941841	110.260193	-42.337916	-159.725024	20.447158	-3.768384	17.020806	-6.082072	-24.828348	-15.257214	-34.420652	4.928310	57.257038	-16.606303	14.362324	27.742301	16.109802	13.790680	-21.871838	
4.9000	-4.640606	4.534170	14.069811	-0.121849	1.024440	0.006649	9.006649	-15.979184	14.588702	-7.277998	-2.731724	0.190159	-21.158135	-66.307389	109.728429	-42.639960	-160.067719	21.200901	-4.321823	16.765103	-5.817520	-24.427901	-15.636803	-34.677372	4.689176	56.923600	-17.382022	14.199514	28.708244	15.940517	13.840073	-22.348144	
4.9100	-4.541872	4.466791	14.051937	-0.121793	1.024686	0.006791	8.831463	-15.807325	14.185135	-7.011756	-2.995103	0.258803	-22.145204	-66.681004	109.106951	-42.960137	-160.438013	22.076635	-4.969278	16.490047	-5.548955	-23.986809	-16.001521	-34.889967	4.433546	56.598978	-18.205870	13.995641	29.722451	15.707537	13.865753	-22.837445	
4.9200	-4.441219	4.396376	14.021130	-0.121715	1.024963	0.006933	8.660888	-15.629618	13.808834	-6.758169	-3.213724	0.315362	-23.210210	-67.056842	108.422246	-43.302871	-160.807039	23.038922	-5.675482	16.198968	-5.273056	-23.512005	-16.359773	-35.070104	4.163456	56.279457	-19.063966	13.768642	30.787192	15.412031	13.850887	-23.316851	
